<svg width="373" height="78" viewBox="0 0 373 78" fill="none" xmlns="http://www.w3.org/2000/svg">
<path d="M41.6817 37.7672C52.0817 38.5672 59.4817 46.0672 59.4817 55.7672C59.4817 69.9672 48.1817 76.9672 33.8817 76.9672H8.5817C3.58169 76.9672 0.881694 74.2672 0.881694 69.2672V9.16721C0.881694 4.16721 3.58169 1.46721 8.5817 1.46721H52.2817C53.6817 1.46721 54.3817 2.86721 53.2817 4.26721L50.7817 7.36721C54.0817 10.5672 56.0817 15.0672 56.0817 20.8672C56.0817 28.1672 49.9817 36.4672 41.6817 37.7672ZM29.2817 13.2672H16.0817V33.4672H27.2817C36.0817 33.4672 40.8817 29.7672 40.8817 23.0672C40.8817 16.6672 36.4817 13.2672 29.2817 13.2672ZM16.0817 65.2672H29.7817C38.8817 65.2672 43.6817 61.4672 43.6817 54.8672C43.6817 48.0672 38.6817 44.4672 29.2817 44.4672H16.0817V65.2672ZM110.06 76.9672H76.1598C71.1598 76.9672 68.4598 74.2672 68.4598 69.2672V9.26721C68.4598 4.26721 71.1598 1.5672 76.1598 1.5672H110.06C115.06 1.5672 117.76 3.8672 117.76 8.0672C117.76 12.2672 115.06 14.5672 110.06 14.5672H84.0598V32.7672H108.16C113.16 32.7672 115.86 34.8672 115.86 38.8672C115.86 42.7672 113.16 44.8672 108.16 44.8672H84.0598V64.0672H110.06C115.06 64.0672 117.76 66.3672 117.76 70.5672C117.76 74.6672 115.06 76.9672 110.06 76.9672ZM136.907 77.6672H136.707C131.707 77.6672 129.007 74.9672 129.007 69.9672V8.4672C129.007 3.56721 131.707 0.867207 136.707 0.867207H136.907C141.907 0.867207 144.607 3.56721 144.607 8.4672V32.7672H178.007V8.4672C178.007 3.56721 180.707 0.867207 185.707 0.867207H186.007C191.007 0.867207 193.607 3.56721 193.607 8.4672V69.9672C193.607 74.9672 191.007 77.6672 186.007 77.6672H185.707C180.707 77.6672 178.007 74.9672 178.007 69.9672V45.5672H144.607V69.9672C144.607 74.9672 141.907 77.6672 136.907 77.6672ZM213.66 76.9672C208.66 76.9672 205.96 74.2672 205.96 69.2672V8.5672C205.96 4.56721 207.56 0.967206 213.76 0.967206C218.86 0.967206 221.56 3.56721 221.56 8.5672V69.2672C221.56 73.2672 220.06 76.9672 213.66 76.9672ZM241.687 77.6672C236.687 77.6672 233.987 74.9672 233.987 69.9672V11.0672C233.987 4.8672 237.387 0.867207 243.587 0.867207C249.987 0.867207 254.487 3.16721 257.787 9.26721L282.787 55.7672V8.5672C282.787 3.56721 285.487 0.867207 290.887 0.867207C296.787 0.867207 298.487 4.3672 298.487 8.5672V67.3672C298.487 73.5672 295.087 77.6672 288.887 77.6672C281.787 77.6672 277.887 75.3672 274.487 68.7672L249.687 22.7672V69.9672C249.687 74.1672 247.487 77.6672 241.687 77.6672ZM360.343 4.26721L357.443 7.86721C367.143 14.1672 372.243 24.7672 372.243 38.5672C372.243 61.7672 356.843 76.9672 332.343 76.9672H318.543C313.543 76.9672 310.843 74.2672 310.843 69.2672V9.36721C310.843 4.3672 313.543 1.46721 318.543 1.46721H359.343C360.843 1.46721 361.443 2.86721 360.343 4.26721ZM326.443 64.0672H332.343C345.343 64.0672 357.343 55.8672 357.343 38.3672C357.343 20.2672 345.343 14.6672 332.343 14.6672H326.443V64.0672Z" fill="black"/>
</svg>
