<svg width="1010" height="50" viewBox="0 0 1010 50" fill="none" xmlns="http://www.w3.org/2000/svg">
<path d="M1004 33.75V38.0156H502.297V33.75H511.25V23.0156C507.875 21.0938 505.836 18.0703 505.859 14.2969C505.812 7.54688 512.469 3.09375 521.562 3.09375C530.703 3.09375 537.359 7.54688 537.359 14.2969C537.359 18 535.391 20.9766 532.109 22.9219V33.75H1004ZM521.562 7.21875C515.234 7.21875 510.922 9.89062 510.969 14.2969C510.922 18.6562 515.234 21.375 521.562 21.375C527.891 21.375 532.25 18.6562 532.25 14.2969C532.25 9.89062 527.891 7.21875 521.562 7.21875ZM516.406 33.75H526.812V24.8906C525.195 25.2656 523.438 25.4531 521.562 25.4531C519.734 25.4531 518 25.2656 516.406 24.9375V33.75Z" fill="black"/>
<path d="M481.484 7.54688V11.7188H460.719V7.54688H468.594V2.01562H473.75V7.54688H481.484ZM471.172 13.9688C476.562 13.9688 480.406 18.0469 480.406 23.8125C480.406 29.6719 476.562 33.7969 471.172 33.7969C465.828 33.7969 461.891 29.6719 461.938 23.8125C461.891 18.0469 465.828 13.9688 471.172 13.9688ZM471.172 18.2812C468.406 18.2812 466.484 20.4844 466.531 23.8125C466.484 27.2344 468.406 29.3906 471.172 29.3438C473.891 29.3906 475.812 27.2344 475.812 23.8125C475.812 20.4844 473.891 18.2812 471.172 18.2812ZM497.234 0.796875V43.1719H492.266V22.4531H488.141V41.25H483.266V1.6875H488.141V18.2344H492.266V0.796875H497.234Z" fill="black"/>
<path d="M453.312 2.85938V6.14062C453.312 9.42188 453.312 13.1719 452.281 18.1875H458.047V22.4062H419.328V18.1875H447.031C448.016 13.6172 448.109 10.125 448.109 7.03125H424.109V2.85938H453.312ZM453.266 27.3281V42.6562H423.969V27.3281H453.266ZM429.078 31.4062V38.4375H448.109V31.4062H429.078Z" fill="black"/>
<path d="M411.828 2.4375V5.67188C411.828 8.83594 411.828 12.5859 410.891 17.2969H416.562V21.4688H399.688V27.0938C407.398 27.6328 412.016 30.4922 412.062 35.0625C412.016 40.2188 406.391 43.125 397.156 43.125C387.828 43.125 382.156 40.2188 382.156 35.0625C382.156 30.4922 386.773 27.6328 394.531 27.1406V21.4688H377.844V17.2969H405.641C406.531 12.9375 406.625 9.60938 406.625 6.60938H382.625V2.4375H411.828ZM397.156 31.2188C390.875 31.2188 387.406 32.5312 387.453 35.0625C387.406 37.6406 390.875 38.9531 397.156 38.9531C403.297 38.9531 406.766 37.6406 406.812 35.0625C406.766 32.5312 403.297 31.2188 397.156 31.2188Z" fill="black"/>
<path d="M360.219 0.796875V43.2188H354.969V0.796875H360.219ZM337.391 3.89062C343.766 3.89062 348.406 9.70312 348.453 18.8438C348.406 28.0781 343.766 33.8438 337.391 33.8438C330.969 33.8438 326.328 28.0781 326.328 18.8438C326.328 9.70312 330.969 3.89062 337.391 3.89062ZM337.391 8.57812C333.781 8.57812 331.344 12.375 331.344 18.8438C331.344 25.3594 333.781 29.1562 337.391 29.1562C340.953 29.1562 343.391 25.3594 343.391 18.8438C343.391 12.375 340.953 8.57812 337.391 8.57812Z" fill="black"/>
<path d="M322.109 20.6719V24.8906H283.484V20.6719H322.109ZM318.734 13.3594V17.5312H304.016V2.85938H318.453V6.98438H309.266V13.3594H318.734ZM301.812 2.85938V6.98438H292.297V13.3594C295.719 13.2891 298.742 13.0312 302.141 12.2812L302.609 16.5C298.156 17.4375 294.359 17.5312 289.625 17.5312H287.094V2.85938H301.812ZM305.469 28.5938C305.469 33.5156 310.625 37.8281 319.438 38.8594L317.516 42.9375C310.672 41.9766 305.445 39.1406 302.844 35.0156C300.242 39.1406 295.016 41.9766 288.172 42.9375L286.297 38.8594C295.062 37.8281 300.172 33.5156 300.172 28.5938V27.6094H305.469V28.5938Z" fill="black"/>
<path d="M264.922 12.7969V16.9219H235.578V2.34375H240.734V12.7969H264.922ZM269.281 21.8438V25.9688H230.562V21.8438H269.281ZM265.203 37.9688V42.1875H235.203V29.7188H240.406V37.9688H265.203Z" fill="black"/>
<path d="M204.172 28.3594C204.172 31.875 205.789 35.5781 209.422 37.875C213.102 35.4141 214.812 31.5703 214.859 28.3594V26.625H219.969V28.3594C219.922 32.8125 222.547 36.9375 228.125 38.7188L225.594 42.5156C221.469 41.1328 218.727 38.4375 217.25 35.0625C215.891 38.3906 213.383 41.3672 209.562 42.8906C205.531 41.4375 203 38.5781 201.688 35.2031C200.164 38.4609 197.469 41.1094 193.531 42.5156L190.953 38.7188C196.438 36.7969 199.062 32.4844 199.109 28.3594V26.625H204.172V28.3594ZM224.422 0.84375V24.8438H219.172V0.84375H224.422ZM201.312 3.09375C207.828 3.09375 212.703 7.21875 212.703 13.1719C212.703 19.0781 207.828 23.2031 201.312 23.2031C194.75 23.2031 189.875 19.0781 189.875 13.1719C189.875 7.21875 194.75 3.09375 201.312 3.09375ZM201.312 7.5C197.609 7.5 194.938 9.70312 194.984 13.1719C194.938 16.6406 197.609 18.8906 201.312 18.8906C204.969 18.8906 207.594 16.6406 207.594 13.1719C207.594 9.70312 204.969 7.5 201.312 7.5Z" fill="black"/>
<path d="M172.812 0.796875V43.1719H167.797V0.796875H172.812ZM164.094 1.54688V41.1094H159.125V20.9531H155.094C154.602 29.2031 151.062 34.3125 145.812 34.2656C140.281 34.3125 136.672 28.4531 136.672 19.125C136.672 9.79688 140.281 4.03125 145.812 4.03125C150.945 4.03125 154.438 8.8125 155.047 16.7344H159.125V1.54688H164.094ZM145.812 8.95312C143.141 8.90625 141.453 12.5156 141.5 19.125C141.453 25.7344 143.141 29.3438 145.812 29.2969C148.625 29.3438 150.312 25.7344 150.312 19.125C150.312 12.5156 148.625 8.90625 145.812 8.95312Z" fill="black"/>
<path d="M116.328 4.73438V15.75H125.141V0.796875H130.297V43.2188H125.141V19.9688H116.328V32.7188H96.3594V4.73438H116.328ZM101.562 8.8125V28.5938H111.219V8.8125H101.562Z" fill="black"/>
<path d="M88.8594 0.796875V43.2188H83.6562V18.4219H71.5156V14.2031H83.6562V0.796875H88.8594ZM60.7344 5.4375V28.8281C66.4297 28.7344 72.0781 28.2891 78.0312 27.1406L78.6406 31.4062C71.7969 32.8125 65.4688 33.1875 59 33.1875H55.5312V5.4375H60.7344Z" fill="black"/>
<path d="M34.1094 4.92188V9.70312C34.1094 15.375 34.1094 21.2344 32.5625 30.1406L27.2656 29.6719C28.9062 21.3281 28.9062 15.1875 28.9062 9.70312V9.14062H4.48438V4.92188H34.1094ZM39.0312 33.0938V37.3594H0.40625V33.0938H39.0312Z" fill="black"/>
<path d="M994 23L1006.5 35.5L994 48" stroke="black" stroke-width="4"/>
</svg>
